PathFileType	4	(X/Y/Z)	8_coords_data.trc
DataRate	CameraRate	NumFrames	NumMarkers	Units	OrigDataRate	OrigDataStartFrame	OrigNumFrames
30.0	30.0	5	21	m	30.0	22	53
Frame#	Time	THUMB_TIP	THUMB_IP	THUMB_MCP	THUMB_CMC	INDEX_TIP	INDEX_DIP	INDEX_PIP	INDEX_MCP	MIDDLE_TIP	MIDDLE_DIP	MIDDLE_PIP	MIDDLE_MCP	RING_TIP	RING_DIP	RING_PIP	RING_MCP	PINKY_TIP	PINKY_DIP	PINKY_PIP	PINKY_MCP	WRIST
X1	Y1	Z1	X2	Y2	Z2	X3	Y3	Z3	X4	Y4	Z4	X5	Y5	Z5	X6	Y6	Z6	X7	Y7	Z7	X8	Y8	Z8	X9	Y9	Z9	X10	Y10	Z10	X11	Y11	Z11	X12	Y12	Z12	X13	Y13	Z13	X14	Y14	Z14	X15	Y15	Z15	X16	Y16	Z16	X17	Y17	Z17	X18	Y18	Z18	X19	Y19	Z19	X20	Y20	Z20	X21	Y21	Z21
21	0.7	-0.03733160018920898	-0.10395700073242188	0.9915269775390625	-0.03545019912719727	-0.07706849670410157	0.9896929931640625	-0.03929899978637695	-0.050533798217773436	0.9963060302734374	-0.042707401275634764	-0.018054500579833984	1.004280029296875	-0.040523998260498045	-0.03280279922485352	0.97872802734375	-0.024049100875854493	-0.032705699920654294	0.9687789916992188	-0.021715099334716798	-0.038777801513671876	0.9478170166015625	-0.05886909866333008	-0.040838199615478514	0.9546719970703125	-0.03417720031738281	-0.01859480094909668	0.9806270141601563	-0.022908599853515624	-0.01658720016479492	0.9686510009765625	-0.020043899536132812	-0.019763999938964844	0.94331201171875	-0.06045420074462891	-0.020432199478149414	0.9484000244140625	-0.03849959945678711	-0.0032733700275421143	0.9821519775390625	-0.02377949905395508	-0.000222243994474411	0.9693759765625	-0.02018199920654297	-1.1528700124470001e-06	0.9456749877929688	-0.05730749893188476	-0.0006987749934196471	0.9492230224609375	-0.03891709899902344	0.010206700325012207	0.9819719848632813	-0.02505470085144043	0.01340130043029785	0.9706859741210937	-0.025690799713134767	0.015986499786376954	0.9541420288085938	-0.05411970138549805	0.0177721004486084	0.9532860107421876	-0.06486119842529296	0.007587609767913818	1.020739990234375
22	0.7333333333333333	-0.0372057991027832	-0.10391100311279297	0.9916129760742187	-0.03524629974365234	-0.0770062026977539	0.9897680053710938	-0.03895880126953125	-0.050496601104736326	0.9963359985351562	-0.042250701904296875	-0.017985200881958006	1.0043300170898437	-0.039878700256347654	-0.0326088981628418	0.97906201171875	-0.02357950019836426	-0.032581298828125	0.96881298828125	-0.02126059913635254	-0.03872140121459961	0.9479329833984375	-0.05854880142211914	-0.04077349853515625	0.9547730102539063	-0.03366299819946289	-0.018494600296020507	0.9806320190429687	-0.022478200912475585	-0.016511899948120117	0.9686900024414062	-0.019649200439453125	-0.019701999664306642	0.9433610229492188	-0.06002939987182617	-0.020372400283813475	0.9484169921875	-0.03808720016479492	-0.003171050071716308	0.9822550048828125	-0.023462200164794923	-0.000161341995000839	0.9692420043945312	-0.01977359962463379	8.513250201940501e-05	0.9458460083007812	-0.05691120147705078	-0.000614812016487121	0.949281005859375	-0.038513599395751955	0.010276800155639648	0.9821110229492187	-0.024729799270629883	0.01344890022277832	0.9707639770507812	-0.025284500122070314	0.016062099456787108	0.9541229858398438	-0.05369869995117187	0.01784630012512207	0.9532890014648437	-0.0645364990234375	0.007662059783935547	1.02077001953125
23	0.7666666666666667	-0.03677439880371094	-0.10381300354003906	0.991739990234375	-0.03487139892578125	-0.07692330169677734	0.9898369750976562	-0.0386172981262207	-0.050388301849365234	0.9963579711914062	-0.04192630004882812	-0.017893999099731446	1.0042899780273438	-0.03978390121459961	-0.032647998809814456	0.9787899780273438	-0.023329099655151366	-0.03250550079345703	0.9687760009765625	-0.021142200469970705	-0.03868960189819336	0.94781201171875	-0.05830120086669922	-0.0408473014831543	0.954864990234375	-0.03354909896850586	-0.018493900299072264	0.9803759765625	-0.02234539985656738	-0.01646579933166504	0.9685040283203125	-0.019639799118041992	-0.0197007999420166	0.943208984375	-0.05999610137939453	-0.02045009994506836	0.94847802734375	-0.03795869827270508	-0.003142469882965088	0.9820819702148438	-0.02336669921875	-0.00011736699938774101	0.9691840209960938	-0.01982539939880371	7.276750355958901e-05	0.9454910278320312	-0.056895999908447265	-0.000695766985416412	0.949239013671875	-0.038348201751708985	0.010284500122070312	0.9818989868164063	-0.024687400817871095	0.013502599716186524	0.970593994140625	-0.02529829978942871	0.01609320068359375	0.9539600219726563	-0.05373109817504883	0.01778000068664551	0.9532579956054688	-0.06419580078125	0.007703090190887451	1.0207999877929688
24	0.8	-0.035280799865722655	-0.10345600128173828	0.991968017578125	-0.03363449859619141	-0.07654910278320312	0.9899349975585937	-0.037687599182128904	-0.0500260009765625	0.9963729858398438	-0.04132049942016602	-0.01752050018310547	1.004280029296875	-0.03887250137329101	-0.03232720184326172	0.9786630249023438	-0.022482200622558592	-0.032093399047851565	0.968447021484375	-0.02042460060119629	-0.038332698822021484	0.947489013671875	-0.057516899108886715	-0.040804798126220704	0.9548690185546875	-0.032956298828125	-0.017999399185180665	0.9801389770507812	-0.021665599822998045	-0.016005599975585937	0.9682730102539062	-0.019119300842285157	-0.01930179977416992	0.9428610229492187	-0.0594385986328125	-0.020447900772094726	0.948489013671875	-0.03743429946899414	-0.002827179908752441	0.98206298828125	-0.02301959991455078	0.000350665003061294	0.968801025390625	-0.019637899398803713	0.0005085549950599671	0.9451649780273438	-0.05660660171508789	-0.0006262720227241511	0.9492860107421875	-0.03814580154418945	0.010562299728393554	0.9817760009765625	-0.02448040008544922	0.013960599899291992	0.9703289794921875	-0.025321599960327148	0.016576499938964845	0.9537310180664063	-0.05376110076904297	0.017862600326538088	0.9532449951171875	-0.06416580200195313	0.007833960056304932	1.0208699951171876
25	0.8333333333333334	-0.034623699188232424	-0.1032750015258789	0.9920830078125	-0.032985698699951174	-0.07637120056152344	0.9901619873046875	-0.03707619857788086	-0.049891101837158204	0.9965659790039062	-0.04086280059814453	-0.017417600631713867	1.0044299926757811	-0.037429298400878906	-0.031917600631713866	0.9785479736328125	-0.021100500106811523	-0.03176059913635254	0.9681229858398438	-0.019476699829101562	-0.03825030136108398	0.9471079711914062	-0.05647869873046875	-0.040473098754882815	0.95481298828125	-0.032043498992919923	-0.017640300750732422	0.9800609741210937	-0.020404199600219726	-0.015693400382995607	0.9677659912109375	-0.018228500366210938	-0.019183700561523437	0.94239501953125	-0.058410099029541016	-0.020124000549316408	0.9484310302734374	-0.03659529876708984	-0.0024268000125885008	0.98214501953125	-0.0219414005279541	0.0007367720007896421	0.9685380249023438	-0.018766799926757814	0.0008240079879760741	0.94497900390625	-0.05575260162353515	-0.00025784900784492403	0.9494500122070313	-0.037185100555419924	0.010900699615478515	0.9816900024414063	-0.02360689926147461	0.014396699905395507	0.9700780029296875	-0.024607799530029298	0.017051000595092774	0.9534329833984375	-0.05302560043334961	0.018268199920654298	0.9534329833984375	-0.06386280059814453	0.007869969844818116	1.0210399780273438
